<svg width="7" height="165" viewBox="0 0 7 165" fill="none" xmlns="http://www.w3.org/2000/svg">
<path id="Line 3" d="M2.75 164.005V164.505H3.75V164.005H2.75ZM3.75 4.99657L6.13675 -0.0034256H0.363249L2.75 4.99657H3.75ZM3.75 164.005V163.005H2.75V164.005H3.75ZM3.75 161.005L3.75 159.005H2.75L2.75 161.005H3.75ZM3.75 157.005L3.75 155.004H2.75L2.75 157.005H3.75ZM3.75 153.004L3.75 151.004H2.75L2.75 153.004H3.75ZM3.75 149.004V147.004H2.75V149.004H3.75ZM3.75 145.004L3.75 143.004H2.75L2.75 145.004H3.75ZM3.75 141.004L3.75 139.004H2.75L2.75 141.004H3.75ZM3.75 137.004L3.75 135.003H2.75L2.75 137.004H3.75ZM3.75 133.003L3.75 131.003H2.75L2.75 133.003H3.75ZM3.75 129.003V127.003H2.75L2.75 129.003H3.75ZM3.75 125.003L3.75 123.003H2.75L2.75 125.003H3.75ZM3.75 121.003L3.75 119.003H2.75L2.75 121.003H3.75ZM3.75 117.003L3.75 115.002H2.75L2.75 117.003H3.75ZM3.75 113.002V111.002H2.75V113.002H3.75ZM3.75 109.002L3.75 107.002H2.75L2.75 109.002H3.75ZM3.75 105.002L3.75 103.002H2.75V105.002H3.75ZM3.75 101.002L3.75 99.0016H2.75L2.75 101.002H3.75ZM3.75 97.0015V95.0014H2.75V97.0015H3.75ZM3.75 93.0013L3.75 91.0012H2.75L2.75 93.0013H3.75ZM3.75 89.0011L3.75 87.001H2.75L2.75 89.0011H3.75ZM3.75 85.0009L3.75 83.0008H2.75L2.75 85.0009H3.75ZM3.75 81.0007V79.0006H2.75V81.0007H3.75ZM3.75 77.0005L3.75 75.0004H2.75L2.75 77.0005H3.75ZM3.75 73.0003L3.75 71.0002H2.75L2.75 73.0003H3.75ZM3.75 69.0001L3.75 67H2.75L2.75 69.0001H3.75ZM3.75 64.9999L3.75 62.9998H2.75L2.75 64.9999H3.75ZM3.75 60.9997V58.9996H2.75L2.75 60.9997H3.75ZM3.75 56.9995L3.75 54.9994H2.75L2.75 56.9995H3.75ZM3.75 52.9993L3.75 50.9992H2.75L2.75 52.9993H3.75ZM3.75 48.9991L3.75 46.999H2.75L2.75 48.9991H3.75ZM3.75 44.9989V42.9988H2.75V44.9989H3.75ZM3.75 40.9987L3.75 38.9986H2.75L2.75 40.9987H3.75ZM3.75 36.9985L3.75 34.9984H2.75V36.9985H3.75ZM3.75 32.9983L3.75 30.9982H2.75L2.75 32.9983H3.75ZM3.75 28.9981V26.998H2.75V28.9981H3.75ZM3.75 24.9979L3.75 22.9978H2.75L2.75 24.9979H3.75ZM3.75 20.9977L3.75 18.9976H2.75L2.75 20.9977H3.75ZM3.75 16.9975L3.75 14.9974H2.75L2.75 16.9975H3.75ZM3.75 12.9972V10.9971H2.75L2.75 12.9972H3.75ZM3.75 8.99703L3.75 6.99693H2.75L2.75 8.99703H3.75ZM3.75 4.99682L3.75 2.99671H2.75L2.75 4.99682H3.75Z" fill="#F2EDC4"/>
</svg>
