<svg width="93" height="112" viewBox="0 0 93 112" fill="none" xmlns="http://www.w3.org/2000/svg">
<path id="Vector 6" d="M46.5 112V90.2M46.5 3V90.2M46.5 3C37.8041 3.67075 23.6746 7.89116 13.8891 18.76M46.5 3C41.271 5.99615 32.4488 14.0366 27.4411 26.98M46.5 3C51.5364 6.60727 59.8111 15.0852 64.5788 26.98M46.5 3C55.775 3.45368 70.7559 7.50452 80.4912 18.76M3.01881 47.69C3.3533 34.9447 7.77265 25.5536 13.8891 18.76M3.01881 47.69C2.68551 60.3902 6.8127 69.5464 12.8666 76.03M3.01881 47.69H10.628H18.2373M46.5 90.2C55.3472 90.2 69.8185 86.8676 79.6175 76.03M46.5 90.2C37.3379 89.9759 22.6079 86.4628 12.8666 76.03M46.5 90.2C41.271 87.7032 32.4488 80.5052 27.4411 68.0401M46.5 90.2C51.0495 87.0787 58.7005 79.4194 63.618 68.0401M89.9812 47.69C90.3079 34.9141 86.3492 25.5327 80.4912 18.76M89.9812 47.69H74.7628M89.9812 47.69C89.656 60.4067 85.4702 69.557 79.6175 76.03M68.2406 47.69C68.5346 40.0242 67.0143 33.0563 64.5788 26.98M68.2406 47.69H23.6724M68.2406 47.69C67.9457 55.3796 66.1418 62.1998 63.618 68.0401M23.6724 47.69C23.6724 39.7796 25.1615 32.8719 27.4411 26.98M23.6724 47.69C23.6724 55.6004 25.1615 62.3659 27.4411 68.0401M13.8891 18.76C15.3385 20.0466 18.4547 23.274 23.6724 25.89M27.4411 26.98C34.5162 29.72 51.8489 33.556 64.5788 26.98M80.4912 18.76C76.3777 22.6479 70.6102 25.1333 68.2406 25.89M79.6175 76.03C75.6747 72.542 70.3901 70.2167 68.2406 69.49M12.8666 76.03C15.0192 74.3333 18.1519 70.6499 22.5 69.49M27.4411 68.0401C34.1669 65.3768 50.8184 61.6482 63.618 68.0401" stroke="#407C46" stroke-width="5"/>
</svg>
